<svg xmlns="http://www.w3.org/2000/svg" width="179.2" height="51.999" viewBox="0 0 179.2 51.999"><g transform="translate(-2110.698 8192.959)"><path d="M1097.444,781.881H941.757c-6.493,0-11.757,4.22-11.757,9.425v33.149c0,5.205,5.264,9.425,11.757,9.425h155.687c6.49,0,11.756-4.22,11.756-9.425V791.306C1109.2,786.1,1103.935,781.881,1097.444,781.881Z" transform="translate(1180.698 -8974.84)" fill="#e08b0d"/><path d="M964.612,848.684a5.986,5.986,0,0,1-2.406-.477,4.677,4.677,0,0,1-1.782-1.4l1.653-1.984a4.323,4.323,0,0,0,1.12,1.065,2.439,2.439,0,0,0,1.267.349q1.818,0,1.818-2.13v-6.116h-4.518v-2.388h7.475v8.338a4.844,4.844,0,0,1-1.176,3.563A4.68,4.68,0,0,1,964.612,848.684Zm12.269-.073a6.418,6.418,0,0,1-2.975-.661,4.911,4.911,0,0,1-1.965-1.8,5.352,5.352,0,0,1-.018-5.253,4.861,4.861,0,0,1,1.892-1.8,5.477,5.477,0,0,1,2.7-.661,5.4,5.4,0,0,1,2.608.624,4.515,4.515,0,0,1,1.855,1.763,5.235,5.235,0,0,1,.679,2.737,3.723,3.723,0,0,1-.02.386c-.01.135-.02.263-.036.386h-8.025V842.66h6.52l-1.1.5a2.745,2.745,0,0,0-.312-1.341,2.214,2.214,0,0,0-.863-.882,2.451,2.451,0,0,0-1.286-.331,2.55,2.55,0,0,0-1.3.331,2.186,2.186,0,0,0-.863.9,2.787,2.787,0,0,0-.312,1.359v.441a2.886,2.886,0,0,0,.349,1.433,2.485,2.485,0,0,0,1.01.937,3.577,3.577,0,0,0,1.543.312,3.645,3.645,0,0,0,1.377-.239,3.35,3.35,0,0,0,1.1-.716l1.523,1.653a4.51,4.51,0,0,1-1.707,1.194A6.448,6.448,0,0,1,976.881,848.611Zm14.565-.147-4.153-9.881h2.959l3.454,8.5h-1.469l3.582-8.5h2.755l-4.168,9.881Zm12.933.147a6.432,6.432,0,0,1-2.979-.661,4.921,4.921,0,0,1-1.964-1.8,5.335,5.335,0,0,1-.015-5.253,4.843,4.843,0,0,1,1.888-1.8,5.49,5.49,0,0,1,2.7-.661,5.4,5.4,0,0,1,2.607.624,4.5,4.5,0,0,1,1.852,1.763,5.236,5.236,0,0,1,.684,2.737c0,.11-.01.239-.02.386s-.026.263-.036.386h-8.025V842.66h6.52l-1.1.5a2.734,2.734,0,0,0-.316-1.341,2.186,2.186,0,0,0-.862-.882,2.45,2.45,0,0,0-1.286-.331,2.532,2.532,0,0,0-1.3.331,2.2,2.2,0,0,0-.867.9,2.832,2.832,0,0,0-.311,1.359v.441a2.867,2.867,0,0,0,.352,1.433,2.485,2.485,0,0,0,1.01.937,3.565,3.565,0,0,0,1.541.312,3.653,3.653,0,0,0,1.378-.239,3.372,3.372,0,0,0,1.1-.716l1.525,1.653a4.554,4.554,0,0,1-1.709,1.194A6.433,6.433,0,0,1,1004.379,848.611Zm10.852,0a4.931,4.931,0,0,1-2.2-.478,3.412,3.412,0,0,1-1.49-1.451,5.261,5.261,0,0,1-.531-2.516v-5.583h2.862v5.161a2.715,2.715,0,0,0,.515,1.818,1.944,1.944,0,0,0,1.49.569,2.445,2.445,0,0,0,1.173-.276,2.014,2.014,0,0,0,.806-.882,3.4,3.4,0,0,0,.3-1.506v-4.885h2.867v9.881H1018.3v-2.718l.495.79a3.437,3.437,0,0,1-1.469,1.561A4.352,4.352,0,0,1,1015.231,848.611Zm7.188-.147,4.428-5.8-.056,1.579-4.245-5.657h3.214l2.684,3.692-1.214.037,2.776-3.728h3.046l-4.26,5.6v-1.543l4.408,5.822h-3.25l-2.811-3.93,1.194.165-2.791,3.765Zm22.28.147a6.432,6.432,0,0,1-2.979-.661,4.921,4.921,0,0,1-1.964-1.8,5.335,5.335,0,0,1-.015-5.253,4.845,4.845,0,0,1,1.888-1.8,5.491,5.491,0,0,1,2.7-.661,5.4,5.4,0,0,1,2.607.624,4.5,4.5,0,0,1,1.852,1.763,5.236,5.236,0,0,1,.684,2.737c0,.11-.01.239-.02.386s-.026.263-.036.386h-8.025V842.66h6.52l-1.1.5a2.736,2.736,0,0,0-.316-1.341,2.186,2.186,0,0,0-.862-.882,2.45,2.45,0,0,0-1.286-.331,2.532,2.532,0,0,0-1.3.331,2.2,2.2,0,0,0-.867.9,2.832,2.832,0,0,0-.311,1.359v.441a2.866,2.866,0,0,0,.352,1.433,2.484,2.484,0,0,0,1.01.937,3.565,3.565,0,0,0,1.541.312,3.652,3.652,0,0,0,1.378-.239,3.373,3.373,0,0,0,1.1-.716l1.526,1.653a4.557,4.557,0,0,1-1.709,1.194A6.434,6.434,0,0,1,1044.7,848.611Zm10,0a10.073,10.073,0,0,1-2.444-.294,6.2,6.2,0,0,1-1.837-.771l.959-2.057a6.539,6.539,0,0,0,1.6.7,6.9,6.9,0,0,0,1.837.257,2.917,2.917,0,0,0,1.393-.239.726.726,0,0,0,.423-.661.537.537,0,0,0-.332-.514,2.506,2.506,0,0,0-.842-.275q-.535-.092-1.178-.184c-.413-.061-.837-.141-1.265-.239a4.492,4.492,0,0,1-1.173-.478,2.507,2.507,0,0,1-.867-.845,2.741,2.741,0,0,1-.311-1.378,2.685,2.685,0,0,1,.536-1.653,3.589,3.589,0,0,1,1.576-1.12,6.481,6.481,0,0,1,2.464-.422,9.968,9.968,0,0,1,2.056.22,5.564,5.564,0,0,1,1.745.643l-.954,2.039a4.68,4.68,0,0,0-1.454-.569,6.182,6.182,0,0,0-1.393-.165,2.892,2.892,0,0,0-1.4.257.751.751,0,0,0-.439.661.6.6,0,0,0,.311.551,3.03,3.03,0,0,0,.862.294c.357.073.74.141,1.158.2a9.468,9.468,0,0,1,1.286.239,4.317,4.317,0,0,1,1.158.478,2.338,2.338,0,0,1,.862.826,2.491,2.491,0,0,1,.332,1.359,2.609,2.609,0,0,1-.551,1.635,3.66,3.66,0,0,1-1.6,1.1A6.879,6.879,0,0,1,1054.7,848.611Zm9.76,0a10.01,10.01,0,0,1-2.444-.294,6.2,6.2,0,0,1-1.837-.771l.954-2.057a6.624,6.624,0,0,0,1.6.7,6.954,6.954,0,0,0,1.837.257,2.941,2.941,0,0,0,1.4-.239.735.735,0,0,0,.423-.661.545.545,0,0,0-.332-.514,2.539,2.539,0,0,0-.847-.275c-.352-.061-.745-.122-1.173-.184s-.842-.141-1.27-.239a4.566,4.566,0,0,1-1.173-.478,2.45,2.45,0,0,1-.862-.845,2.991,2.991,0,0,1,.219-3.031,3.577,3.577,0,0,1,1.582-1.12,6.453,6.453,0,0,1,2.459-.422,9.968,9.968,0,0,1,2.056.22,5.565,5.565,0,0,1,1.745.643l-.954,2.039a4.657,4.657,0,0,0-1.449-.569,6.225,6.225,0,0,0-1.4-.165,2.892,2.892,0,0,0-1.4.257.76.76,0,0,0-.439.661.6.6,0,0,0,.311.551,3.087,3.087,0,0,0,.862.294c.357.073.745.141,1.158.2a9.468,9.468,0,0,1,1.286.239,4.251,4.251,0,0,1,1.158.478,2.3,2.3,0,0,1,.862.826,2.491,2.491,0,0,1,.332,1.359,2.61,2.61,0,0,1-.551,1.635,3.642,3.642,0,0,1-1.6,1.1A6.917,6.917,0,0,1,1064.463,848.611Zm12.494-.147v-1.928l-.184-.422V842.66a1.84,1.84,0,0,0-.571-1.433,2.44,2.44,0,0,0-1.709-.514,4.916,4.916,0,0,0-1.561.257,4.025,4.025,0,0,0-1.286.661l-1.026-2a6.137,6.137,0,0,1,1.944-.882,8.722,8.722,0,0,1,2.316-.312,5.236,5.236,0,0,1,3.5,1.065,4.121,4.121,0,0,1,1.25,3.324v5.638Zm-3.015.147a4.668,4.668,0,0,1-1.985-.386,3.083,3.083,0,0,1-1.265-1.084,2.724,2.724,0,0,1-.439-1.524,2.809,2.809,0,0,1,.418-1.543,2.853,2.853,0,0,1,1.378-1.029,6.516,6.516,0,0,1,2.444-.386h2.627v1.671H1074.8a2.182,2.182,0,0,0-1.393.331,1.066,1.066,0,0,0-.367.826,1.053,1.053,0,0,0,.423.882,2.017,2.017,0,0,0,1.194.312,2.529,2.529,0,0,0,1.286-.331,2.013,2.013,0,0,0,.827-1.01l.439,1.322a2.561,2.561,0,0,1-1.138,1.451A4.1,4.1,0,0,1,1073.943,848.611Zm9.357,3.563a5.033,5.033,0,0,1-1.526-.239,3.36,3.36,0,0,1-1.229-.661l1.046-2.039a2.5,2.5,0,0,0,.755.459,2.436,2.436,0,0,0,.862.165,1.43,1.43,0,0,0,.954-.294,2.362,2.362,0,0,0,.663-.937l.515-1.212.219-.312,3.546-8.522h2.755L1087.4,849.07a6.224,6.224,0,0,1-1.1,1.873,3.354,3.354,0,0,1-1.362.955A4.6,4.6,0,0,1,1083.3,852.174Zm1.689-3.324-4.408-10.267h2.959l3.413,8.265Zm12.673-.239a6.41,6.41,0,0,1-2.974-.661,4.888,4.888,0,0,1-1.964-1.8,5.352,5.352,0,0,1-.021-5.253,4.858,4.858,0,0,1,1.893-1.8,5.47,5.47,0,0,1,2.7-.661,5.389,5.389,0,0,1,2.607.624,4.51,4.51,0,0,1,1.857,1.763,5.235,5.235,0,0,1,.679,2.737q0,.165-.015.386c-.015.135-.026.263-.041.386h-8.025V842.66h6.52l-1.1.5a2.734,2.734,0,0,0-.311-1.341,2.219,2.219,0,0,0-.862-.882,2.451,2.451,0,0,0-1.286-.331,2.564,2.564,0,0,0-1.306.331,2.191,2.191,0,0,0-.862.9,2.776,2.776,0,0,0-.311,1.359v.441a2.918,2.918,0,0,0,.347,1.433,2.485,2.485,0,0,0,1.01.937,3.588,3.588,0,0,0,1.546.312,3.653,3.653,0,0,0,1.378-.239,3.372,3.372,0,0,0,1.1-.716l1.52,1.653a4.5,4.5,0,0,1-1.7,1.194A6.48,6.48,0,0,1,1097.661,848.611Zm6.683-.147v-9.881h2.74v2.792l-.388-.808a3.143,3.143,0,0,1,1.413-1.58,4.744,4.744,0,0,1,2.372-.551v2.645c-.122-.012-.235-.018-.332-.018a2.521,2.521,0,0,0-.311-.018,2.434,2.434,0,0,0-2.627,2.755v4.665Z" transform="translate(1163.334 -9010.851)" fill="#202020"/></g></svg>