<svg xmlns="http://www.w3.org/2000/svg" width="645.792" height="110.55" viewBox="0 0 645.792 110.55">
  <path id="Tracé_98" data-name="Tracé 98" d="M153.75,538.039c-29.55,0-45.6-16.35-45-39.15h22.8c0,13.2,8.1,19.05,22.2,19.05,15.45,0,22.8-6.45,22.8-14.55,0-5.4-5.55-9.75-18-10.8l-11.55-.9c-20.25-1.65-34.2-12.9-34.2-30.3,0-20.4,16.95-33.9,41.1-33.9,25.35,0,43.05,15,40.65,38.25H171.6c0-7.8-1.5-18.3-17.7-18.3-12.45,0-18.6,6.3-18.6,13.95,0,5.1,4.35,9.45,13.65,10.2l11.4.9c24.15,1.8,38.7,13.35,38.7,30.9C199.05,523.339,181.2,538.039,153.75,538.039Zm98.9-3c-19.35,0-32.7-7.05-32.7-27.75v-30.3H206.6v-16.95h13.35v-30h22.8v30h16.2v16.95H230v1.2c4.95,0,12.75,2.7,12.75,9.45v21.15c0,5.1,2.85,7.65,8.7,7.65h6.6v18.6Zm54.428,2.85c-29.25-.15-43.35-20.25-43.35-39v-2.4c0-19.2,14.7-39,43.2-39,28.65,0,43.35,19.8,43.35,39a40.1,40.1,0,0,1-.15,6H286.68c1.65,10.5,8.85,16.65,20.4,16.8,9.3-.15,15.75-4.35,18.75-11.7h23.4C345.63,523.339,331.68,537.739,307.08,537.889Zm19.05-49.65c-2.85-7.8-9.45-12.15-19.2-12.15-9.6,0-16.35,4.35-19.05,12.15Zm31.643,46.8.15-105h22.8v105Zm30.469,0,.15-105h22.8v105Zm63.019,2.25c-19.8,0-32.55-9.45-32.55-25.95s13.2-25.8,36.15-25.8h15.15c-.75-5.55-4.5-7.05-11.85-7.05l-30.45-.15v-18.3h25.8c25.95,0,38.7,7.35,38.7,28.65v46.35h-19.8v-3.75C467.161,535.339,460.111,537.289,451.261,537.289Zm3-17.25c7.35,0,15.9-2.85,15.9-13.65v-4.05h-15.9c-8.85,0-13.2,3.6-13.2,9S445.411,520.039,454.261,520.039Zm46.921,15v-75h22.65v9.15c5.85-7.05,13.2-11.25,25.05-11.25h4.2v18.6h-9.3c-14.1,0-19.8,4.65-19.8,17.25v41.25Zm253.344,0H617.73V516.25l80.743-60.479H617.73V439.39h136.8v18.633l-80.975,60.634h80.975Z" transform="translate(-108.734 -427.489)" fill="#e08b0d"/>
</svg>
